<svg width="800" height="468" viewBox="0 0 800 468" fill="none" xmlns="http://www.w3.org/2000/svg">
<g clip-path="url(#clip0_8_190)">
<path d="M635.787 10.2407L125.54 54.8536C55.7606 60.9547 4.14209 122.433 10.247 192.168L23.0015 337.862C29.1064 407.598 90.6229 459.184 160.402 453.083L670.65 408.47C740.429 402.369 792.048 340.891 785.943 271.155L773.188 125.461C767.083 55.7257 705.567 4.13959 635.787 10.2407Z" stroke="#EFB200" stroke-width="24"/>
<path d="M202.926 155.747C198.699 107.469 156.111 71.7555 107.802 75.9793C59.4936 80.2031 23.7579 122.765 27.9843 171.043L44.14 355.587C48.3664 403.866 90.9546 439.579 139.263 435.355C187.572 431.132 223.308 388.57 219.081 340.292L202.926 155.747Z" stroke="#EFB200" stroke-width="24"/>
<path d="M132.236 131.342C131.297 120.614 121.833 112.678 111.097 113.616C100.362 114.555 92.4207 124.013 93.3599 134.741L114.83 379.992C115.769 390.721 125.233 398.657 135.969 397.719C146.704 396.78 154.645 387.322 153.706 376.593L132.236 131.342Z" fill="black"/>
<path d="M466.249 122.127H315.029C301.559 122.127 290.639 133.041 290.639 146.502C290.639 159.964 301.559 170.878 315.029 170.878H466.249C479.719 170.878 490.639 159.964 490.639 146.502C490.639 133.041 479.719 122.127 466.249 122.127Z" fill="black"/>
<path d="M473.704 207.286H322.485C309.014 207.286 298.094 218.199 298.094 231.661C298.094 245.123 309.014 256.036 322.485 256.036H473.704C487.175 256.036 498.094 245.123 498.094 231.661C498.094 218.199 487.175 207.286 473.704 207.286Z" fill="black"/>
<path d="M481.159 292.445H329.94C316.469 292.445 305.549 303.358 305.549 316.82C305.549 330.282 316.469 341.195 329.94 341.195H481.159C494.629 341.195 505.549 330.282 505.549 316.82C505.549 303.358 494.629 292.445 481.159 292.445Z" fill="black"/>
<path d="M752.048 107.735C747.822 59.4563 705.233 23.743 656.925 27.9668C608.616 32.1907 572.88 74.7521 577.107 123.031L593.262 307.575C597.489 355.853 640.077 391.567 688.386 387.343C736.694 383.119 772.43 340.558 768.204 292.279L752.048 107.735Z" stroke="#EFB200" stroke-width="24"/>
<path d="M681.357 83.3305C680.417 72.6019 670.953 64.6655 660.218 65.6042C649.483 66.5428 641.542 76.001 642.481 86.7295L663.951 331.981C664.89 342.709 674.354 350.645 685.089 349.707C695.825 348.768 703.766 339.31 702.827 328.581L681.357 83.3305Z" fill="black"/>
</g>
<defs>
<clipPath id="clip0_8_190">
<rect width="800" height="468" fill="white"/>
</clipPath>
</defs>
</svg>
